<svg xmlns="http://www.w3.org/2000/svg" xmlns:xlink="http://www.w3.org/1999/xlink" width="200" zoomAndPan="magnify" viewBox="0 0 150 149.999998" height="200" preserveAspectRatio="xMidYMid meet" version="1.0"><defs><g/><clipPath id="22c7e78019"><path d="M 70 46 L 127 46 L 127 93 L 70 93 Z M 70 46 " clip-rule="nonzero"/></clipPath><clipPath id="fd20275ca9"><path d="M 107.21875 23.625 L 144.808594 69.425781 L 89.152344 115.101562 L 51.5625 69.304688 Z M 107.21875 23.625 " clip-rule="nonzero"/></clipPath><clipPath id="48d77d0b09"><path d="M 107.21875 23.625 L 144.808594 69.425781 L 89.152344 115.101562 L 51.5625 69.304688 Z M 107.21875 23.625 " clip-rule="nonzero"/></clipPath><clipPath id="df4ca16401"><path d="M 107.226562 23.636719 L 144.859375 69.484375 L 89.132812 115.222656 L 51.503906 69.375 Z M 107.226562 23.636719 " clip-rule="nonzero"/></clipPath><clipPath id="3c4d2eb745"><path d="M 107.226562 23.636719 L 144.800781 69.414062 L 89.144531 115.089844 L 51.574219 69.316406 Z M 107.226562 23.636719 " clip-rule="nonzero"/></clipPath><clipPath id="d7ed642f1d"><path d="M 17.214844 73.222656 L 132.296875 73.222656 L 132.296875 75.851562 L 17.214844 75.851562 Z M 17.214844 73.222656 " clip-rule="nonzero"/></clipPath></defs><g clip-path="url(#22c7e78019)"><g clip-path="url(#fd20275ca9)"><g clip-path="url(#48d77d0b09)"><g clip-path="url(#df4ca16401)"><g clip-path="url(#3c4d2eb745)"><path fill="#004aad" d="M 79.402344 46.476562 L 70.359375 92.203125 L 116.972656 92.25 L 126.015625 46.523438 L 79.402344 46.476562 " fill-opacity="1" fill-rule="nonzero"/></g></g></g></g></g><g clip-path="url(#d7ed642f1d)"><path fill="#004aad" d="M 17.214844 73.222656 L 132.449219 73.222656 L 132.449219 75.714844 L 17.214844 75.714844 Z M 17.214844 73.222656 " fill-opacity="1" fill-rule="nonzero"/></g><g fill="#ffffff" fill-opacity="1"><g transform="translate(24.483984, 71.86688)"><g><path d="M 7.351562 0.320312 C 11.414062 0.320312 14.292969 -1.664062 15.953125 -6.332031 L 11.351562 -8.121094 C 10.710938 -6.105469 9.625 -4.539062 8.023438 -4.539062 C 5.914062 -4.539062 6.136719 -6.808594 6.9375 -10.644531 C 7.863281 -14.929688 9.078125 -17.550781 11.03125 -17.550781 C 12.789062 -17.550781 12.980469 -16.625 12.757812 -14.609375 L 17.777344 -15.3125 C 18.160156 -19.980469 15.859375 -22.410156 11.351562 -22.410156 C 4.957031 -22.410156 2.492188 -16.6875 1.375 -11.507812 C 0.191406 -5.851562 0.574219 0.320312 7.351562 0.320312 Z M 7.351562 0.320312 "/></g></g></g><g fill="#ffffff" fill-opacity="1"><g transform="translate(41.172104, 71.86688)"><g><path d="M 11.253906 -22.058594 L 4.058594 -22.058594 L -0.609375 0 L 5.242188 0 L 6.777344 -7.417969 L 7.511719 -7.417969 L 8.695312 0.03125 L 14.484375 0.03125 L 12.5 -8.375 C 14.707031 -9.464844 16.371094 -11.476562 16.945312 -14.257812 C 17.9375 -18.894531 15.730469 -22.058594 11.253906 -22.058594 Z M 8.953125 -17.550781 L 10.136719 -17.550781 C 11.382812 -17.550781 11.765625 -16.433594 11.445312 -14.867188 C 11.03125 -12.820312 9.75 -11.605469 8.441406 -11.605469 L 7.671875 -11.605469 Z M 8.953125 -17.550781 "/></g></g></g><g fill="#ffffff" fill-opacity="1"><g transform="translate(57.668409, 71.86688)"><g><path d="M 3.773438 0 L 9.527344 0 L 11.191406 -7.703125 L 19.628906 -22.058594 L 13.363281 -22.058594 L 10.679688 -16.402344 L 9.175781 -12.179688 L 9.464844 -16.402344 L 9.207031 -22.058594 L 3.132812 -22.058594 L 5.46875 -7.703125 Z M 3.773438 0 "/></g></g></g><g fill="#ffffff" fill-opacity="1"><g transform="translate(74.420471, 71.86688)"><g><path d="M -0.609375 0 L 5.242188 0 L 6.777344 -7.417969 L 8.28125 -7.417969 C 12.46875 -7.417969 16.015625 -9.910156 16.945312 -14.257812 C 17.9375 -18.894531 15.730469 -22.058594 11.253906 -22.058594 L 4.058594 -22.058594 Z M 7.671875 -11.605469 L 8.953125 -17.550781 L 10.136719 -17.550781 C 11.382812 -17.550781 11.765625 -16.273438 11.445312 -14.707031 C 11.03125 -12.660156 9.75 -11.605469 8.441406 -11.605469 Z M 7.671875 -11.605469 "/></g></g></g><g fill="#000000" fill-opacity="1"><g transform="translate(75.94344, 90.239374)"><g><path d="M 12.113281 -10.902344 C 11.351562 -10.824219 10.378906 -10.679688 9.261719 -10.472656 C 9.203125 -10.460938 9.203125 -10.46875 9.230469 -10.523438 L 9.242188 -10.550781 C 9.257812 -10.59375 9.265625 -10.640625 9.261719 -10.679688 C 9.25 -10.808594 9.132812 -10.902344 9.003906 -10.890625 C 8.921875 -10.882812 8.84375 -10.828125 8.8125 -10.757812 C 8.761719 -10.648438 8.703125 -10.527344 8.636719 -10.410156 C 8.605469 -10.359375 8.582031 -10.34375 8.53125 -10.332031 C 6.183594 -9.882812 3.25 -9.1875 0.234375 -8.324219 C 0.125 -8.292969 0.0507812 -8.1875 0.0625 -8.070312 C 0.0742188 -7.941406 0.191406 -7.847656 0.320312 -7.859375 L 0.359375 -7.871094 C 3.203125 -8.679688 5.949219 -9.335938 8.210938 -9.792969 C 8.265625 -9.804688 8.273438 -9.792969 8.246094 -9.742188 C 7.574219 -8.644531 6.546875 -7.183594 5.476562 -5.644531 C 3.371094 -2.628906 1.058594 0.679688 0.902344 1.96875 C 0.886719 2.089844 0.894531 2.214844 0.90625 2.292969 C 0.945312 2.480469 1.171875 2.554688 1.324219 2.433594 C 1.433594 2.335938 1.503906 2.125 1.535156 1.792969 C 1.546875 1.691406 1.53125 1.613281 1.488281 1.570312 C 2.003906 0.152344 3.984375 -2.691406 5.859375 -5.371094 C 7.058594 -7.078125 8.199219 -8.722656 8.867188 -9.867188 C 8.898438 -9.914062 8.914062 -9.929688 8.96875 -9.933594 C 10.257812 -10.179688 11.347656 -10.347656 12.160156 -10.433594 C 14.34375 -10.65625 14.925781 -10.554688 14.984375 -9.992188 C 14.996094 -9.863281 15.113281 -9.769531 15.242188 -9.78125 C 15.375 -9.796875 15.46875 -9.910156 15.457031 -10.042969 C 15.359375 -10.96875 14.601562 -11.15625 12.113281 -10.902344 Z M 12.113281 -10.902344 "/></g></g></g><g fill="#000000" fill-opacity="1"><g transform="translate(83.832843, 89.435672)"><g><path d="M 7.390625 -10.5625 C 5.921875 -10.410156 4.265625 -8.960938 4.371094 -7.910156 C 4.429688 -7.347656 4.921875 -6.972656 5.664062 -6.902344 C 2.578125 -5.277344 -0.0703125 -2.382812 0.125 -0.46875 C 0.246094 0.742188 1.050781 1.285156 2.472656 1.140625 C 4.519531 0.933594 7.273438 -1.269531 8.933594 -3.140625 C 8.972656 -3.191406 8.992188 -3.253906 8.988281 -3.320312 C 8.976562 -3.445312 8.851562 -3.542969 8.726562 -3.53125 C 8.667969 -3.523438 8.617188 -3.5 8.570312 -3.457031 C 6.949219 -1.621094 4.328125 0.476562 2.425781 0.671875 C 1.257812 0.789062 0.691406 0.425781 0.59375 -0.515625 C 0.398438 -2.4375 3.734375 -5.757812 7.234375 -7.109375 L 7.226562 -7.109375 C 7.464844 -7.171875 7.695312 -7.25 7.917969 -7.332031 C 8.050781 -7.390625 8.105469 -7.507812 8.058594 -7.636719 C 8.003906 -7.78125 7.898438 -7.839844 7.757812 -7.796875 C 7.527344 -7.726562 7.292969 -7.644531 7.0625 -7.554688 L 7.070312 -7.554688 C 6.75 -7.46875 6.464844 -7.414062 6.175781 -7.386719 C 5.425781 -7.308594 4.886719 -7.542969 4.84375 -7.957031 C 4.765625 -8.734375 6.261719 -9.96875 7.4375 -10.089844 C 7.84375 -10.132812 8.121094 -9.824219 8.183594 -9.269531 C 8.195312 -9.136719 8.3125 -9.042969 8.441406 -9.054688 C 8.566406 -9.070312 8.667969 -9.191406 8.652344 -9.316406 C 8.558594 -10.136719 8.058594 -10.628906 7.390625 -10.5625 Z M 7.390625 -10.5625 "/></g></g></g><g fill="#000000" fill-opacity="1"><g transform="translate(92.22555, 88.580698)"><g><path d="M 1.195312 0.78125 C 4.628906 0.433594 8.699219 -1.988281 10.375 -3.296875 C 10.4375 -3.347656 10.476562 -3.429688 10.46875 -3.511719 C 10.453125 -3.640625 10.339844 -3.734375 10.207031 -3.722656 C 10.167969 -3.71875 10.117188 -3.699219 10.085938 -3.667969 C 8.429688 -2.378906 4.476562 -0.0273438 1.148438 0.3125 C 0.285156 0.398438 -0.3125 -0.21875 -0.246094 -1.136719 C -0.0234375 -3.941406 4.390625 -10.140625 8.402344 -10.550781 C 9.324219 -10.644531 9.847656 -10.316406 9.804688 -9.675781 C 9.710938 -8.386719 8.367188 -6.605469 6.476562 -5.261719 C 6.402344 -5.210938 6.367188 -5.125 6.375 -5.042969 C 6.386719 -4.910156 6.503906 -4.816406 6.632812 -4.828125 C 6.671875 -4.835938 6.71875 -4.851562 6.75 -4.875 C 8.355469 -6.015625 10.152344 -7.960938 10.269531 -9.644531 C 10.339844 -10.597656 9.570312 -11.144531 8.355469 -11.023438 C 4.132812 -10.59375 -0.492188 -4.105469 -0.714844 -1.167969 C -0.808594 0.0351562 0.03125 0.902344 1.195312 0.78125 Z M 1.195312 0.78125 "/></g></g></g><g fill="#000000" fill-opacity="1"><g transform="translate(102.030113, 87.581896)"><g><path d="M 14.722656 -11.253906 C 14.664062 -11.25 14.609375 -11.214844 14.566406 -11.171875 C 13.378906 -9.75 11.714844 -7.289062 10.152344 -4.726562 C 10.128906 -4.683594 10.097656 -4.667969 10.050781 -4.664062 C 7.988281 -4.484375 5.9375 -4.203125 4.117188 -3.859375 C 4.066406 -3.855469 4.058594 -3.859375 4.085938 -3.910156 C 5.472656 -6.324219 6.902344 -8.667969 7.882812 -9.957031 C 7.921875 -10.007812 7.9375 -10.066406 7.929688 -10.125 C 7.917969 -10.257812 7.800781 -10.351562 7.671875 -10.339844 C 7.605469 -10.332031 7.542969 -10.296875 7.507812 -10.25 C 6.460938 -8.867188 4.929688 -6.339844 3.46875 -3.792969 C 3.441406 -3.746094 3.417969 -3.730469 3.371094 -3.71875 C 2.667969 -3.582031 2 -3.433594 1.382812 -3.285156 C 1.265625 -3.253906 1.191406 -3.144531 1.203125 -3.027344 C 1.21875 -2.898438 1.332031 -2.804688 1.464844 -2.816406 L 1.496094 -2.820312 C 1.984375 -2.941406 2.507812 -3.0625 3.058594 -3.171875 C 3.117188 -3.183594 3.117188 -3.171875 3.097656 -3.128906 C 2.210938 -1.574219 1.375 -0.046875 0.714844 1.1875 C 0.691406 1.230469 0.683594 1.277344 0.691406 1.324219 C 0.703125 1.453125 0.816406 1.546875 0.949219 1.535156 C 1.027344 1.527344 1.101562 1.480469 1.132812 1.410156 C 1.839844 0.0898438 2.753906 -1.574219 3.703125 -3.25 C 3.730469 -3.300781 3.757812 -3.316406 3.808594 -3.328125 C 5.621094 -3.671875 7.667969 -3.972656 9.746094 -4.164062 C 9.800781 -4.167969 9.804688 -4.164062 9.777344 -4.105469 C 8.214844 -1.492188 7.386719 0.0859375 6.742188 1.796875 C 6.589844 2.195312 6.65625 2.398438 6.925781 2.371094 C 7.082031 2.355469 7.257812 2.152344 7.417969 1.8125 C 7.464844 1.703125 7.449219 1.597656 7.363281 1.535156 C 8.097656 -0.191406 8.863281 -1.683594 10.363281 -4.160156 C 10.390625 -4.207031 10.414062 -4.222656 10.460938 -4.222656 C 11.226562 -4.289062 11.988281 -4.332031 12.75 -4.363281 L 12.765625 -4.363281 C 12.894531 -4.378906 12.988281 -4.492188 12.976562 -4.625 C 12.964844 -4.75 12.855469 -4.84375 12.730469 -4.835938 C 12.066406 -4.816406 11.390625 -4.773438 10.699219 -4.714844 C 12.207031 -7.175781 13.785156 -9.507812 14.929688 -10.867188 C 14.96875 -10.917969 14.988281 -10.976562 14.984375 -11.042969 C 14.96875 -11.175781 14.855469 -11.269531 14.722656 -11.253906 Z M 14.722656 -11.253906 "/></g></g></g></svg>