<svg xmlns="http://www.w3.org/2000/svg" xmlns:xlink="http://www.w3.org/1999/xlink" width="500" zoomAndPan="magnify" viewBox="0 0 375 374.999991" height="500" preserveAspectRatio="xMidYMid meet" version="1.0"><defs><g/><clipPath id="37a9104801"><path d="M 181 136 L 305 136 L 305 239 L 181 239 Z M 181 136 " clip-rule="nonzero"/></clipPath><clipPath id="c6c65321fe"><path d="M 262.738281 86.152344 L 346.007812 187.605469 L 223.101562 288.480469 L 139.835938 187.027344 Z M 262.738281 86.152344 " clip-rule="nonzero"/></clipPath><clipPath id="f90aec80d5"><path d="M 262.738281 86.152344 L 346.007812 187.605469 L 223.101562 288.480469 L 139.835938 187.027344 Z M 262.738281 86.152344 " clip-rule="nonzero"/></clipPath><clipPath id="8a8c04e3de"><path d="M 262.761719 86.179688 L 346.113281 187.738281 L 223.050781 288.738281 L 139.699219 187.183594 Z M 262.761719 86.179688 " clip-rule="nonzero"/></clipPath><clipPath id="34208be1b9"><path d="M 262.761719 86.179688 L 345.984375 187.578125 L 223.078125 288.453125 L 139.859375 187.054688 Z M 262.761719 86.179688 " clip-rule="nonzero"/></clipPath><clipPath id="c57cb1222f"><path d="M 51.382812 185.839844 L 321.929688 185.839844 L 321.929688 189 L 51.382812 189 Z M 51.382812 185.839844 " clip-rule="nonzero"/></clipPath></defs><g clip-path="url(#37a9104801)"><g clip-path="url(#c6c65321fe)"><g clip-path="url(#f90aec80d5)"><g clip-path="url(#8a8c04e3de)"><g clip-path="url(#34208be1b9)"><path fill="#004aad" d="M 201.3125 136.617188 L 181.46875 237.753906 L 284.535156 238.015625 L 304.375 136.878906 L 201.3125 136.617188 " fill-opacity="1" fill-rule="nonzero"/></g></g></g></g></g><g clip-path="url(#c57cb1222f)"><path fill="#004aad" d="M 51.382812 185.839844 L 321.824219 185.839844 L 321.824219 188.953125 L 51.382812 188.953125 Z M 51.382812 185.839844 " fill-opacity="1" fill-rule="nonzero"/></g><g fill="#000000" fill-opacity="1"><g transform="translate(98.915517, 184.63687)"><g><path d="M 16.410156 0.714844 C 25.46875 0.714844 31.890625 -3.710938 35.601562 -14.125 L 25.328125 -18.121094 C 23.898438 -13.625 21.472656 -10.128906 17.90625 -10.128906 C 13.199219 -10.128906 13.699219 -15.195312 15.480469 -23.757812 C 17.550781 -33.316406 20.261719 -39.167969 24.613281 -39.167969 C 28.539062 -39.167969 28.964844 -37.097656 28.464844 -32.605469 L 39.667969 -34.171875 C 40.523438 -44.589844 35.386719 -50.011719 25.328125 -50.011719 C 11.058594 -50.011719 5.566406 -37.242188 3.066406 -25.683594 C 0.429688 -13.054688 1.285156 0.714844 16.410156 0.714844 Z M 16.410156 0.714844 "/></g></g></g><g fill="#000000" fill-opacity="1"><g transform="translate(136.155473, 184.63687)"><g><path d="M 25.113281 -49.226562 L 9.0625 -49.226562 L -1.355469 0 L 11.699219 0 L 15.125 -16.550781 L 16.765625 -16.550781 L 19.40625 0.0703125 L 32.320312 0.0703125 L 27.894531 -18.691406 C 32.816406 -21.117188 36.527344 -25.613281 37.8125 -31.820312 C 40.023438 -42.164062 35.101562 -49.226562 25.113281 -49.226562 Z M 19.976562 -39.167969 L 22.617188 -39.167969 C 25.398438 -39.167969 26.253906 -36.671875 25.542969 -33.175781 C 24.613281 -28.609375 21.761719 -25.898438 18.835938 -25.898438 L 17.121094 -25.898438 Z M 19.976562 -39.167969 "/></g></g></g><g fill="#000000" fill-opacity="1"><g transform="translate(172.967387, 184.63687)"><g><path d="M 8.417969 0 L 21.261719 0 L 24.96875 -17.195312 L 43.804688 -49.226562 L 29.820312 -49.226562 L 23.828125 -36.597656 L 20.476562 -27.183594 L 21.117188 -36.597656 L 20.546875 -49.226562 L 6.992188 -49.226562 L 12.199219 -17.195312 Z M 8.417969 0 "/></g></g></g><g fill="#000000" fill-opacity="1"><g transform="translate(210.350032, 184.63687)"><g><path d="M -1.355469 0 L 11.699219 0 L 15.125 -16.550781 L 18.476562 -16.550781 C 27.824219 -16.550781 35.742188 -22.117188 37.8125 -31.820312 C 40.023438 -42.164062 35.101562 -49.226562 25.113281 -49.226562 L 9.0625 -49.226562 Z M 17.121094 -25.898438 L 19.976562 -39.167969 L 22.617188 -39.167969 C 25.398438 -39.167969 26.253906 -36.3125 25.542969 -32.816406 C 24.613281 -28.253906 21.761719 -25.898438 18.835938 -25.898438 Z M 17.121094 -25.898438 "/></g></g></g><g fill="#ffffff" fill-opacity="1"><g transform="translate(189.858275, 225.598153)"><g><path d="M 30.277344 -27.257812 C 28.382812 -27.0625 25.945312 -26.699219 23.15625 -26.183594 C 23.011719 -26.152344 23.007812 -26.167969 23.078125 -26.308594 L 23.101562 -26.378906 C 23.140625 -26.480469 23.164062 -26.597656 23.152344 -26.695312 C 23.121094 -27.023438 22.832031 -27.257812 22.503906 -27.226562 C 22.308594 -27.203125 22.109375 -27.070312 22.027344 -26.894531 C 21.90625 -26.617188 21.753906 -26.324219 21.585938 -26.023438 C 21.515625 -25.902344 21.457031 -25.863281 21.328125 -25.832031 C 15.464844 -24.707031 8.128906 -22.96875 0.585938 -20.816406 C 0.316406 -20.738281 0.128906 -20.46875 0.15625 -20.175781 C 0.191406 -19.847656 0.480469 -19.613281 0.804688 -19.648438 L 0.902344 -19.675781 C 8.007812 -21.703125 14.875 -23.34375 20.523438 -24.480469 C 20.667969 -24.511719 20.6875 -24.480469 20.617188 -24.359375 C 18.933594 -21.609375 16.367188 -17.964844 13.6875 -14.109375 C 8.429688 -6.570312 2.648438 1.695312 2.25 4.921875 C 2.214844 5.222656 2.230469 5.535156 2.269531 5.730469 C 2.363281 6.199219 2.929688 6.386719 3.3125 6.085938 C 3.582031 5.84375 3.761719 5.3125 3.839844 4.480469 C 3.863281 4.230469 3.828125 4.035156 3.71875 3.929688 C 5.007812 0.382812 9.964844 -6.726562 14.648438 -13.429688 C 17.648438 -17.699219 20.5 -21.800781 22.171875 -24.664062 C 22.242188 -24.789062 22.289062 -24.824219 22.417969 -24.839844 C 25.640625 -25.445312 28.371094 -25.875 30.398438 -26.082031 C 35.855469 -26.636719 37.320312 -26.390625 37.460938 -24.984375 C 37.496094 -24.65625 37.78125 -24.421875 38.109375 -24.457031 C 38.4375 -24.488281 38.671875 -24.777344 38.636719 -25.105469 C 38.402344 -27.425781 36.503906 -27.890625 30.277344 -27.257812 Z M 30.277344 -27.257812 "/></g></g></g><g fill="#ffffff" fill-opacity="1"><g transform="translate(209.581781, 223.588898)"><g><path d="M 18.476562 -26.402344 C 14.800781 -26.027344 10.664062 -22.402344 10.929688 -19.769531 C 11.074219 -18.367188 12.308594 -17.433594 14.160156 -17.261719 C 6.449219 -13.1875 -0.179688 -5.957031 0.308594 -1.171875 C 0.617188 1.851562 2.621094 3.214844 6.183594 2.855469 C 11.300781 2.332031 18.1875 -3.171875 22.332031 -7.855469 C 22.433594 -7.980469 22.484375 -8.136719 22.46875 -8.300781 C 22.4375 -8.609375 22.128906 -8.859375 21.820312 -8.828125 C 21.671875 -8.8125 21.546875 -8.75 21.425781 -8.636719 C 17.371094 -4.046875 10.820312 1.191406 6.066406 1.675781 C 3.140625 1.976562 1.726562 1.0625 1.488281 -1.289062 C 0.996094 -6.09375 9.332031 -14.390625 18.085938 -17.777344 L 18.070312 -17.773438 C 18.664062 -17.933594 19.238281 -18.125 19.796875 -18.328125 C 20.128906 -18.480469 20.261719 -18.773438 20.148438 -19.09375 C 20.011719 -19.457031 19.75 -19.597656 19.394531 -19.496094 C 18.820312 -19.320312 18.230469 -19.113281 17.660156 -18.886719 L 17.675781 -18.890625 C 16.871094 -18.675781 16.160156 -18.535156 15.4375 -18.464844 C 13.558594 -18.273438 12.210938 -18.863281 12.105469 -19.890625 C 11.910156 -21.835938 15.65625 -24.925781 18.597656 -25.226562 C 19.609375 -25.328125 20.300781 -24.554688 20.457031 -23.167969 C 20.492188 -22.84375 20.78125 -22.605469 21.105469 -22.640625 C 21.417969 -22.671875 21.667969 -22.976562 21.636719 -23.289062 C 21.390625 -25.34375 20.144531 -26.570312 18.476562 -26.402344 Z M 18.476562 -26.402344 "/></g></g></g><g fill="#ffffff" fill-opacity="1"><g transform="translate(230.563548, 221.451463)"><g><path d="M 2.988281 1.957031 C 11.570312 1.082031 21.75 -4.972656 25.941406 -8.238281 C 26.09375 -8.371094 26.1875 -8.578125 26.167969 -8.773438 C 26.132812 -9.101562 25.847656 -9.335938 25.519531 -9.304688 C 25.421875 -9.292969 25.292969 -9.246094 25.21875 -9.171875 C 21.074219 -5.945312 11.1875 -0.0664062 2.871094 0.78125 C 0.710938 1 -0.78125 -0.546875 -0.621094 -2.84375 C -0.0625 -9.851562 10.972656 -25.355469 21.007812 -26.378906 C 23.3125 -26.613281 24.617188 -25.789062 24.515625 -24.191406 C 24.28125 -20.964844 20.921875 -16.511719 16.195312 -13.15625 C 16.011719 -13.023438 15.914062 -12.816406 15.9375 -12.605469 C 15.96875 -12.277344 16.257812 -12.042969 16.585938 -12.074219 C 16.683594 -12.085938 16.792969 -12.128906 16.871094 -12.1875 C 20.890625 -15.039062 25.378906 -19.90625 25.679688 -24.113281 C 25.847656 -26.492188 23.925781 -27.863281 20.886719 -27.554688 C 10.328125 -26.480469 -1.226562 -10.261719 -1.785156 -2.921875 C -2.023438 0.0898438 0.0820312 2.253906 2.988281 1.957031 Z M 2.988281 1.957031 "/></g></g></g><g fill="#ffffff" fill-opacity="1"><g transform="translate(255.074956, 218.954459)"><g><path d="M 36.808594 -28.136719 C 36.664062 -28.121094 36.523438 -28.042969 36.417969 -27.933594 C 33.445312 -24.375 29.285156 -18.222656 25.378906 -11.816406 C 25.324219 -11.710938 25.246094 -11.667969 25.132812 -11.65625 C 19.976562 -11.214844 14.847656 -10.511719 10.292969 -9.652344 C 10.164062 -9.636719 10.144531 -9.652344 10.214844 -9.773438 C 13.679688 -15.808594 17.257812 -21.671875 19.703125 -24.890625 C 19.808594 -25.019531 19.839844 -25.171875 19.828125 -25.316406 C 19.792969 -25.644531 19.503906 -25.878906 19.179688 -25.84375 C 19.015625 -25.828125 18.859375 -25.746094 18.773438 -25.621094 C 16.152344 -22.167969 12.320312 -15.851562 8.675781 -9.484375 C 8.605469 -9.363281 8.542969 -9.324219 8.429688 -9.296875 C 6.667969 -8.953125 5.003906 -8.582031 3.457031 -8.210938 C 3.167969 -8.132812 2.980469 -7.867188 3.007812 -7.570312 C 3.042969 -7.246094 3.332031 -7.011719 3.65625 -7.042969 L 3.738281 -7.050781 C 4.964844 -7.359375 6.269531 -7.65625 7.644531 -7.929688 C 7.792969 -7.960938 7.792969 -7.925781 7.738281 -7.820312 C 5.527344 -3.929688 3.4375 -0.121094 1.789062 2.972656 C 1.734375 3.074219 1.710938 3.195312 1.722656 3.308594 C 1.757812 3.636719 2.046875 3.871094 2.371094 3.835938 C 2.566406 3.816406 2.753906 3.699219 2.835938 3.523438 C 4.597656 0.226562 6.878906 -3.9375 9.261719 -8.125 C 9.332031 -8.25 9.394531 -8.289062 9.523438 -8.316406 C 14.058594 -9.175781 19.164062 -9.925781 24.367188 -10.40625 C 24.496094 -10.421875 24.515625 -10.40625 24.449219 -10.265625 C 20.539062 -3.726562 18.464844 0.214844 16.851562 4.492188 C 16.476562 5.488281 16.644531 6 17.3125 5.929688 C 17.707031 5.890625 18.148438 5.382812 18.542969 4.535156 C 18.664062 4.257812 18.621094 3.996094 18.40625 3.839844 C 20.242188 -0.476562 22.160156 -4.207031 25.902344 -10.398438 C 25.972656 -10.523438 26.035156 -10.5625 26.152344 -10.554688 C 28.066406 -10.71875 29.972656 -10.828125 31.878906 -10.910156 L 31.910156 -10.910156 C 32.238281 -10.945312 32.472656 -11.234375 32.4375 -11.558594 C 32.40625 -11.871094 32.136719 -12.105469 31.824219 -12.09375 C 30.160156 -12.039062 28.472656 -11.933594 26.753906 -11.789062 C 30.519531 -17.9375 34.464844 -23.769531 37.320312 -27.164062 C 37.425781 -27.292969 37.476562 -27.445312 37.457031 -27.609375 C 37.425781 -27.933594 37.136719 -28.171875 36.808594 -28.136719 Z M 36.808594 -28.136719 "/></g></g></g></svg>